PathFileType	4	(x/y/z)	S08_M20_T09
DataRate	CameraRate	NumFrames	NumMarkers	Units	OrigDataRate	OrigDataStartFrame	OrigNumFrames
240	240	7	51	mm	240	64	510
Frame#	Time	Sternum			R.Acromium			L.Acromium			Top.Head			R.ASIS			L.ASIS			R.PSIS			L.PSIS			R.Great.Tro			L.Great.Tro			R.Iliac.Crest			L.Iliac.Crest			V.Sacral			R.Thigh.Upper.Post			R.Thigh.Lower.Ant			R.Thigh.Lower.Post			R.Thigh.Upper.Ant			R.Knee.Lat			R.Knee.Med			R.Shank.Upper.Post			R.Shank.Lower.Ant			R.Shank.Lower.Post			R.Shank.Upper.Ant			R.Ankle.Lat			R.Ankle.Med			R.Heel.Upper			R.Heel.Med			R.Heel.Lat			R.Toe.Lat			R.Toe.Med			R.Toe.Tip			L.Thigh.Upper.Post			L.Thigh.Lower.Ant			L.Thigh.Lower.Post			L.Thigh.Upper.Ant			L.Knee.Lat			L.Knee.Med			L.Shank.Upper.Post			L.Shank.Lower.Ant			L.Shank.Lower.Post			L.Shank.Upper.Ant			L.Ankle.Lat			L.Ankle.Med			L.Heel.Upper			L.Heel.Med			L.Heel.Lat			L.Toe.Lat			L.Toe.Med			L.Toe.Tip			Cervical.Spine			Back			
		X1	Y1	Z1	X2	Y2	Z2	X3	Y3	Z3	X4	Y4	Z4	X5	Y5	Z5	X6	Y6	Z6	X7	Y7	Z7	X8	Y8	Z8	X9	Y9	Z9	X10	Y10	Z10	X11	Y11	Z11	X12	Y12	Z12	X13	Y13	Z13	X14	Y14	Z14	X15	Y15	Z15	X16	Y16	Z16	X17	Y17	Z17	X18	Y18	Z18	X19	Y19	Z19	X20	Y20	Z20	X21	Y21	Z21	X22	Y22	Z22	X23	Y23	Z23	X24	Y24	Z24	X25	Y25	Z25	X26	Y26	Z26	X27	Y27	Z27	X28	Y28	Z28	X29	Y29	Z29	X30	Y30	Z30	X31	Y31	Z31	X32	Y32	Z32	X33	Y33	Z33	X34	Y34	Z34	X35	Y35	Z35	X36	Y36	Z36	X37	Y37	Z37	X38	Y38	Z38	X39	Y39	Z39	X40	Y40	Z40	X41	Y41	Z41	X42	Y42	Z42	X43	Y43	Z43	X44	Y44	Z44	X45	Y45	Z45	X46	Y46	Z46	X47	Y47	Z47	X48	Y48	Z48	X49	Y49	Z49	X50	Y50	Z50	X51	Y51	Z51	

64	0.2625	NaN	NaN	NaN	-1393.3	1457	498.09	-1397.4	1483.3	162	-1373	1781.5	343.98	NaN	NaN	NaN	-1248.9	1020.5	210.72	NaN	NaN	NaN	NaN	NaN	NaN	-1359.6	886.79	496.48	-1325.9	917.82	131.11	-1384.5	1071.5	480.54	-1346	1101.3	172.69	-1479.8	999.27	292.7	-1354.6	686.33	485.4	-1263.2	594.16	476.92	NaN	NaN	NaN	-1272	688.38	490.78	-1297.5	500.5	472.73	-1294.1	496.56	338.27	-1468.2	429.25	469.85	-1472.5	338.56	452.78	-1523.8	379.76	460.71	NaN	NaN	NaN	-1658.8	284.06	426.85	-1616	257.78	352.4	-1698.8	302.4	371.12	NaN	NaN	NaN	-1724.3	291.79	402.26	-1658	133.68	467.1	-1626.6	114.75	356.45	-1587.6	73.083	408.46	-1309.3	700.07	154.34	-1211.4	628.51	192.64	-1280.6	616.64	179.06	-1236	709.64	163.16	-1252.7	521.05	205.61	-1268.9	525.14	330.14	-1309.4	338.39	202.76	-1242.9	254.5	236.73	-1314	266.85	220.44	-1243.5	327.73	217.39	-1303	99.684	243.31	-1283.9	103.04	332.72	-1355.2	74.909	292.91	NaN	NaN	NaN	-1347.7	49.972	259.34	-1171.3	42.222	230.82	-1155.9	39.141	347.16	-1089.8	57.718	300.47	-1466.8	1515.8	325.29	-1499.8	1228.3	330.85
65	0.26667	NaN	NaN	NaN	-1388.3	1457.7	497.99	-1392.1	1484	161.88	-1367.7	1782.1	344.02	NaN	NaN	NaN	-1244.2	1021.1	210.43	NaN	NaN	NaN	NaN	NaN	NaN	-1353.8	887.64	496.45	-1321.3	918.31	130.99	-1379.3	1072.3	480.36	-1341.3	1102	172.53	-1474.7	999.87	292.7	-1346.3	687.1	485.57	-1253.7	596.03	476.96	NaN	NaN	NaN	-1263.9	690.05	490.85	-1286.9	501.9	472.6	-1283.8	498.07	338.18	-1456.8	429.43	469.84	-1460.6	338.73	452.95	-1511.9	379.25	460.83	NaN	NaN	NaN	-1646.6	282.6	427.02	-1604.2	256.78	352.85	-1687.5	299.66	371.48	NaN	NaN	NaN	-1712.7	288.72	402.78	-1642.5	132.59	468.38	-1611.3	113.55	357.72	-1571.1	73.076	409.82	-1305.9	700.53	154.14	-1208.5	628.29	192.55	-1277.8	616.91	178.87	-1232.6	709.56	163.12	-1250.4	520.98	205.59	-1267.1	525.26	329.89	-1308.3	338.55	202.75	-1242	254.42	236.72	-1313.1	267.06	220.47	-1242.3	327.6	217.33	-1302.7	99.835	243.44	-1283.8	103.03	332.68	-1355	75.024	292.96	NaN	NaN	NaN	-1347.6	50.135	259.34	-1171.1	42.165	230.8	-1155.8	38.95	347.32	-1089.7	57.249	300.5	-1461.6	1516.5	325.09	-1494.8	1229	330.52
66	0.27083	NaN	NaN	NaN	-1383.3	1458.3	497.89	-1386.9	1484.7	161.78	-1362.3	1782.8	344.07	NaN	NaN	NaN	-1239.3	1021.7	210.13	NaN	NaN	NaN	NaN	NaN	NaN	-1348.1	888.48	496.44	-1316.8	918.8	130.86	-1374.2	1073.2	480.2	-1336.5	1102.6	172.37	-1469.7	1000.5	292.72	-1337.9	687.89	485.76	-1244.3	597.93	477	NaN	NaN	NaN	-1255.8	691.73	490.91	-1276.3	503.33	472.43	-1273.7	499.63	338.08	-1445.4	429.49	469.84	-1448.8	338.81	453.12	-1499.9	378.59	460.99	NaN	NaN	NaN	-1634.2	280.89	427.25	-1592.5	255.67	353.36	-1676.1	296.67	371.9	NaN	NaN	NaN	-1700.9	285.39	403.39	-1626.8	131.33	469.61	-1595.8	112.24	358.91	-1554.3	73.013	411.11	-1302.4	700.99	153.93	-1205.7	628.07	192.45	-1275	617.17	178.67	-1229.2	709.48	163.07	-1248.1	520.91	205.55	-1265.1	525.37	329.64	-1307.3	338.73	202.72	-1241.2	254.36	236.71	-1312.2	267.27	220.49	-1241.2	327.46	217.26	-1302.4	99.982	243.56	-1283.6	103.03	332.64	-1354.9	75.147	293	NaN	NaN	NaN	-1347.5	50.298	259.32	-1171	42.113	230.77	-1155.7	38.778	347.48	-1089.5	56.802	300.52	-1456.4	1517.2	324.9	-1489.8	1229.7	330.2
67	0.275	NaN	NaN	NaN	-1378.4	1459	497.78	-1381.6	1485.3	161.68	-1356.9	1783.4	344.11	NaN	NaN	NaN	-1234.4	1022.3	209.83	NaN	NaN	NaN	NaN	NaN	NaN	-1342.3	889.32	496.44	-1312.4	919.27	130.73	-1369	1073.9	480.04	-1331.8	1103.3	172.19	-1464.7	1001	292.75	-1329.5	688.71	485.98	-1234.9	599.86	477.03	NaN	NaN	NaN	-1247.8	693.43	490.96	-1265.7	504.78	472.24	-1263.6	501.24	337.96	-1434.1	429.43	469.87	-1436.9	338.8	453.29	-1487.9	377.78	461.18	NaN	NaN	NaN	-1621.7	278.95	427.54	-1580.8	254.47	353.94	-1664.6	293.44	372.38	-1684.2	268.75	343.03	-1689.1	281.79	404.08	-1610.9	129.89	470.8	-1580.2	110.84	360.03	-1537.3	72.89	412.33	-1299	701.44	153.72	-1202.9	627.83	192.31	-1272.2	617.42	178.46	-1225.9	709.38	162.99	-1245.8	520.85	205.49	-1263.2	525.47	329.41	-1306.2	338.91	202.7	-1240.4	254.3	236.68	-1311.3	267.49	220.51	-1240.1	327.34	217.17	-1302.1	100.13	243.68	-1283.5	103.06	332.61	-1354.7	75.277	293.04	NaN	NaN	NaN	-1347.4	50.461	259.31	-1170.9	42.064	230.75	-1155.6	38.622	347.63	-1089.4	56.375	300.53	-1451.2	1517.9	324.71	-1484.7	1230.4	329.9
68	0.27917	NaN	NaN	NaN	-1373.4	1459.6	497.68	-1376.3	1486	161.6	-1351.6	1784	344.14	NaN	NaN	NaN	-1229.5	1022.9	209.51	NaN	NaN	NaN	NaN	NaN	NaN	-1336.5	890.14	496.46	-1308	919.72	130.58	-1363.8	1074.7	479.89	-1327	1103.9	172.01	-1459.7	1001.5	292.81	-1321.2	689.54	486.23	-1225.6	601.82	477.05	NaN	NaN	NaN	-1239.9	695.14	491	-1255.2	506.25	472.02	-1253.7	502.89	337.83	-1422.7	429.25	469.92	-1425	338.69	453.47	-1475.9	376.84	461.4	NaN	NaN	NaN	-1609.1	276.79	427.89	-1569.2	253.21	354.56	-1653	289.97	372.92	-1673.1	264.8	343.98	-1677.2	277.95	404.84	-1594.9	128.3	471.94	-1564.5	109.35	361.07	-1520.1	72.707	413.47	-1295.7	701.88	153.52	-1200.2	627.58	192.15	-1269.5	617.67	178.24	-1222.7	709.28	162.88	-1243.6	520.8	205.41	-1261.1	525.56	329.2	-1305.2	339.1	202.67	-1239.6	254.25	236.64	-1310.5	267.7	220.52	-1239	327.23	217.08	-1301.7	100.27	243.79	-1283.4	103.1	332.59	-1354.6	75.417	293.08	NaN	NaN	NaN	-1347.3	50.624	259.3	-1170.8	42.018	230.73	-1155.6	38.482	347.77	-1089.2	55.968	300.53	-1446.1	1518.5	324.53	-1479.7	1231.1	329.61
69	0.28333	NaN	NaN	NaN	-1368.5	1460.3	497.58	-1371.1	1486.7	161.51	-1346.2	1784.5	344.18	NaN	NaN	NaN	-1224.5	1023.4	209.18	NaN	NaN	NaN	NaN	NaN	NaN	-1330.7	890.95	496.48	-1303.7	920.16	130.43	-1358.6	1075.4	479.76	-1322.2	1104.4	171.82	-1454.8	1002	292.88	-1312.9	690.4	486.51	-1216.4	603.8	477.05	NaN	NaN	NaN	-1231.9	696.87	491.02	-1244.8	507.75	471.78	-1243.9	504.59	337.69	-1411.4	428.95	470	-1413.1	338.48	453.64	-1463.9	375.77	461.65	NaN	NaN	NaN	-1596.4	274.4	428.31	-1557.7	251.92	355.22	-1641.3	286.28	373.53	-1661.6	260.62	344.97	-1665.2	273.88	405.68	-1578.8	126.55	473.03	-1548.6	107.77	362.04	-1502.8	72.464	414.53	-1292.4	702.31	153.31	-1197.5	627.33	191.98	-1266.8	617.9	178.01	-1219.4	709.17	162.76	-1241.5	520.75	205.32	-1259.1	525.65	329.01	-1304.3	339.29	202.64	-1238.8	254.21	236.58	-1309.6	267.92	220.53	-1237.9	327.14	216.98	-1301.4	100.41	243.9	-1283.2	103.15	332.57	-1354.5	75.567	293.11	NaN	NaN	NaN	-1347.2	50.787	259.29	-1170.7	41.976	230.7	-1155.5	38.357	347.9	-1089.1	55.581	300.52	-1440.9	1519.1	324.35	-1474.8	1231.8	329.34
70	0.2875	NaN	NaN	NaN	-1363.5	1460.9	497.48	-1365.8	1487.3	161.44	-1340.9	1785.1	344.21	NaN	NaN	NaN	-1219.5	1024	208.84	NaN	NaN	NaN	NaN	NaN	NaN	-1324.9	891.74	496.51	-1299.5	920.59	130.26	-1353.5	1076.1	479.62	-1317.5	1104.9	171.63	-1449.9	1002.5	292.97	-1304.6	691.27	486.81	-1207.2	605.8	477.04	NaN	NaN	NaN	-1224.1	698.6	491.01	-1234.5	509.26	471.51	-1234.2	506.32	337.53	-1400	428.54	470.1	-1401.2	338.17	453.81	-1451.9	374.57	461.93	NaN	NaN	NaN	-1583.5	271.81	428.78	-1546.3	250.61	355.92	-1629.5	282.37	374.2	-1649.6	256.23	346.01	-1653	269.57	406.58	-1562.5	124.66	474.08	-1532.5	106.12	362.93	-1485.3	72.161	415.5	-1289.1	702.73	153.11	-1194.8	627.07	191.78	-1264.2	618.14	177.79	-1216.2	709.05	162.62	-1239.4	520.7	205.22	-1257	525.73	328.83	-1303.3	339.49	202.6	-1238	254.18	236.51	-1308.8	268.14	220.53	-1236.9	327.06	216.88	-1301.1	100.54	244.01	-1283.1	103.22	332.56	-1354.3	75.729	293.14	NaN	NaN	NaN	-1347.1	50.947	259.28	-1170.6	41.936	230.68	-1155.4	38.245	348.02	-1089	55.212	300.5	-1435.8	1519.7	324.17	-1469.8	1232.4	329.08
